# xmcd
#
# Track frame offsets: 
#        150
#        20879
#        47458
#        68359
#        85761
#        112068
#        134802
#        158921
#        184298
#        207791
#        228311
#        249183
#        276114
#        303992
#
# Disc length: 4411 seconds
#
# Revision: 3
# Processed by: cddbd v1.5.2PL0 Copyright (c) Steve Scherf et al.
# Submitted via: ExactAudioCopy v1.0b3
#
DISCID=bd11390e
DTITLE=Various Artist - Hed Kandi: Kandi Lounge
DYEAR=2008
DGENRE=Electronic
TTITLE0=4hero - Morning Child
TTITLE1=Dame Shirley Bassey - Slave To The Rhythm (The Glimmer Twins R
TTITLE1=emix)
TTITLE2=12th Floor - Take It Back
TTITLE3=Waldeck - Memories
TTITLE4=Andy Caldwell - I Can't Wait
TTITLE5=Moca - Latein
TTITLE6=The Snugs - Strugglin' (Rephrase Mix)
TTITLE7=Physics - Don't U Want (Love)
TTITLE8=D'Stephanie - Rock The Disco
TTITLE9=Sneaky Fox - Broke
TTITLE10=Peter, Bjorn and John ft. Victoria Bergsman - Young Folks
TTITLE11=Office Gossip - Say It
TTITLE12=IKON - Breaking (All Good Funk Alliance Remix)
TTITLE13=Wez Clarke and Maxine Hardcastle ft. The Lovely Laura On Sax - 
TTITLE13=Another Chance
EXTD=
EXTT0=
EXTT1=
EXTT2=
EXTT3=
EXTT4=
EXTT5=
EXTT6=
EXTT7=
EXTT8=
EXTT9=
EXTT10=
EXTT11=
EXTT12=
EXTT13=
PLAYORDER=
